<?xml version="1.0" encoding="UTF-8"?>
<svg width="1102px" height="739px" viewBox="0 0 1102 739" version="1.1" xmlns="http://www.w3.org/2000/svg" xmlns:xlink="http://www.w3.org/1999/xlink">
    <!-- Generator: Sketch 52.5 (67469) - http://www.bohemiancoding.com/sketch -->
    <title>14206</title>
    <desc>Created with Sketch.</desc>
    <g id="Page-1" stroke="none" stroke-width="1" fill="none" fill-rule="evenodd" opacity="0.173502604">
        <g id="Group" fill="#011C48">
            <g id="14206" transform="translate(-42.000000, 0.000000)">
                <path d="M780.475286,874 C692.882046,874 623.599076,833.008357 556.599073,793.372361 C490.102196,754.03246 421.34271,713.354328 334.947664,713.354328 C248.552618,713.354328 179.793131,754.029557 113.299162,793.369458 C77.6645136,814.450211 40.8171297,836.25088 1.59662303,851.636172 L0,847.583744 C38.8947839,832.326179 75.5880312,810.618403 111.074359,789.621833 C178.074362,749.985837 247.357331,709 334.947664,709 C422.537996,709 491.820965,749.98874 558.823876,789.624736 C625.317845,828.964638 694.077332,869.645672 780.475286,869.645672 C866.870332,869.645672 935.629819,828.964638 1002.12379,789.624736 C1069.12379,749.98874 1138.40676,709 1226,709 L1226,713.354328 C1139.60205,713.354328 1070.84256,754.03246 1004.34859,793.372361 C937.348588,833.008357 868.065618,874 780.475286,874" id="Fill-13"></path>
                <path d="M780.475286,845 C692.882046,845 623.599076,804.01126 556.599073,764.375264 C490.102196,725.035362 421.34271,684.354328 334.947664,684.354328 C248.552618,684.354328 179.793131,725.03246 113.296254,764.372361 C77.6616053,785.453114 40.8142214,807.253783 1.59662303,822.641977 L0,818.586647 C38.8918757,803.329082 75.5880312,781.621305 111.071451,760.627639 C178.074362,720.98874 247.357331,680 334.947664,680 C422.537996,680 491.820965,720.98874 558.823876,760.627639 C625.317845,799.964638 694.077332,840.645672 780.475286,840.645672 C866.870332,840.645672 935.629819,799.964638 1002.12379,760.627639 C1069.12379,720.98874 1138.40676,680 1226,680 L1226,684.354328 C1139.60205,684.354328 1070.84256,725.035362 1004.34859,764.375264 C937.348588,804.01126 868.065618,845 780.475286,845" id="Fill-14"></path>
                <path d="M780.475286,816 C692.882046,816 623.599076,775.008357 556.599073,735.372361 C490.102196,696.03246 421.34271,655.354328 334.947664,655.354328 C248.552618,655.354328 179.796039,696.03246 113.299162,735.369458 C77.6645136,756.453114 40.8171297,778.253783 1.59662303,793.639075 L0,789.586647 C38.8947839,774.329082 75.5909394,752.621305 111.077268,731.624736 C178.07727,691.98874 247.357331,651 334.947664,651 C422.537996,651 491.820965,691.98874 558.823876,731.627639 C625.317845,770.96754 694.077332,811.645672 780.475286,811.645672 C866.870332,811.645672 935.629819,770.96754 1002.12379,731.627639 C1069.12379,691.98874 1138.40676,651 1226,651 L1226,655.354328 C1139.60205,655.354328 1070.84256,696.03246 1004.34859,735.372361 C937.348588,775.008357 868.065618,816 780.475286,816" id="Fill-15"></path>
                <path d="M780.475286,787 C692.882046,787 623.599076,746.01126 556.599073,706.375264 C490.102196,667.035362 421.34271,626.354328 334.947664,626.354328 C248.552618,626.354328 179.793131,667.03246 113.296254,706.372361 C77.6616053,727.453114 40.8142214,749.253783 1.59662303,764.641977 L0,760.586647 C38.8918757,745.329082 75.5880312,723.621305 111.071451,702.627639 C178.074362,662.98874 247.357331,622 334.947664,622 C422.537996,622 491.820965,662.98874 558.823876,702.627639 C625.317845,741.964638 694.077332,782.645672 780.475286,782.645672 C866.870332,782.645672 935.629819,741.964638 1002.12379,702.627639 C1069.12379,662.98874 1138.40676,622 1226,622 L1226,626.354328 C1139.60205,626.354328 1070.84256,667.035362 1004.34859,706.375264 C937.348588,746.01126 868.065618,787 780.475286,787" id="Fill-16"></path>
                <path d="M780.475286,757 C692.882046,757 623.599076,716.008357 556.599073,676.372361 C490.102196,637.03246 421.34271,596.354328 334.947664,596.354328 C248.552618,596.354328 179.796039,637.03246 113.299162,676.369458 C77.6645136,697.453114 40.8171297,719.253783 1.59662303,734.639075 L0,730.586647 C38.8947839,715.329082 75.5909394,693.621305 111.077268,672.624736 C178.07727,632.985837 247.357331,592 334.947664,592 C422.537996,592 491.820965,632.98874 558.823876,672.627639 C625.317845,711.96754 694.077332,752.645672 780.475286,752.645672 C866.870332,752.645672 935.629819,711.96754 1002.12379,672.627639 C1069.12379,632.98874 1138.40676,592 1226,592 L1226,596.354328 C1139.60205,596.354328 1070.84256,637.03246 1004.34859,676.372361 C937.348588,716.008357 868.065618,757 780.475286,757" id="Fill-17"></path>
                <path d="M780.475286,728 C692.882046,728 623.599076,687.010539 556.599073,647.373845 C490.102196,608.033252 421.34271,567.354405 334.947664,567.354405 C248.552618,567.354405 179.793131,608.030349 113.299162,647.370942 C77.6645136,668.452066 40.8142214,690.253118 1.59662303,705.641584 L0,701.586182 C38.8918757,686.328348 75.5880312,664.62019 111.074359,643.626155 C178.074362,603.986559 247.357331,563 334.947664,563 C422.537996,563 491.820965,603.986559 558.823876,643.626155 C625.317845,682.966748 694.077332,723.645595 780.475286,723.645595 C866.870332,723.645595 935.629819,682.966748 1002.12379,643.626155 C1069.12379,603.986559 1138.40676,563 1226,563 L1226,567.354405 C1139.60205,567.354405 1070.84256,608.033252 1004.34859,647.373845 C937.348588,687.010539 868.065618,728 780.475286,728" id="Fill-18"></path>
                <path d="M780.475286,699 C692.882046,699 623.599076,658.01126 556.599073,618.372361 C490.102196,579.03246 421.34271,538.354328 334.947664,538.354328 C248.552618,538.354328 179.793131,579.03246 113.299162,618.372361 C77.6645136,639.453114 40.8142214,661.253783 1.59662303,676.639075 L0,672.586647 C38.8918757,657.329082 75.5880312,635.618403 111.074359,614.624736 C178.074362,574.98874 247.357331,534 334.947664,534 C422.537996,534 491.820965,574.98874 558.823876,614.627639 C625.317845,653.964638 694.077332,694.645672 780.475286,694.645672 C866.870332,694.645672 935.629819,653.964638 1002.12379,614.627639 C1069.12379,574.98874 1138.40676,534 1226,534 L1226,538.354328 C1139.60205,538.354328 1070.84256,579.03246 1004.34859,618.372361 C937.348588,658.01126 868.065618,699 780.475286,699" id="Fill-19"></path>
                <path d="M780.475286,670 C692.882046,670 623.599076,629.01126 556.599073,589.372361 C490.102196,550.03246 421.34271,509.354328 334.947664,509.354328 C248.552618,509.354328 179.793131,550.03246 113.299162,589.372361 C77.6645136,610.453114 40.8142214,632.253783 1.59662303,647.639075 L0,643.586647 C38.8918757,628.329082 75.5880312,606.618403 111.074359,585.624736 C178.074362,545.98874 247.357331,505 334.947664,505 C422.537996,505 491.820965,545.98874 558.823876,585.627639 C625.317845,624.96754 694.077332,665.645672 780.475286,665.645672 C866.870332,665.645672 935.629819,624.96754 1002.12379,585.627639 C1069.12379,545.98874 1138.40676,505 1226,505 L1226,509.354328 C1139.60205,509.354328 1070.84256,550.03246 1004.34859,589.372361 C937.348588,629.01126 868.065618,670 780.475286,670" id="Fill-20"></path>
                <path d="M780.475286,640 C692.882046,640 623.599076,599.01126 556.599073,559.375264 C490.102196,520.03246 421.34271,479.354328 334.947664,479.354328 C248.552618,479.354328 179.793131,520.03246 113.299162,559.372361 C77.6645136,580.453114 40.8142214,602.253783 1.59662303,617.641977 L0,613.58955 C38.8947839,598.329082 75.5880312,576.618403 111.074359,555.627639 C178.074362,515.98874 247.357331,475 334.947664,475 C422.537996,475 491.820965,515.98874 558.823876,555.627639 C625.317845,594.96754 694.077332,635.645672 780.475286,635.645672 C866.870332,635.645672 935.629819,594.96754 1002.12379,555.627639 C1069.12379,515.98874 1138.40676,475 1226,475 L1226,479.354328 C1139.60205,479.354328 1070.84256,520.03246 1004.34859,559.375264 C937.348588,599.01126 868.065618,640 780.475286,640" id="Fill-21"></path>
                <path d="M780.475286,611 C692.882046,611 623.599076,570.010539 556.599073,530.373845 C490.102196,491.033252 421.34271,450.354405 334.947664,450.354405 C248.552618,450.354405 179.793131,491.030349 113.299162,530.370942 C77.6645136,551.452066 40.8142214,573.253118 1.59662303,588.638681 L0,584.586182 C38.8918757,569.328348 75.5880312,547.617287 111.074359,526.626155 C178.074362,486.986559 247.357331,446 334.947664,446 C422.537996,446 491.820965,486.986559 558.823876,526.626155 C625.317845,565.966748 694.077332,606.645595 780.475286,606.645595 C866.870332,606.645595 935.629819,565.966748 1002.12379,526.626155 C1069.12379,486.986559 1138.40676,446 1226,446 L1226,450.354405 C1139.60205,450.354405 1070.84256,491.033252 1004.34859,530.373845 C937.348588,570.010539 868.065618,611 780.475286,611" id="Fill-22"></path>
                <path d="M780.475286,582 C692.882046,582 623.599076,541.01126 556.599073,501.372361 C490.102196,462.03246 421.34271,421.354328 334.947664,421.354328 C248.552618,421.354328 179.793131,462.03246 113.299162,501.372361 C77.6645136,522.453114 40.8142214,544.253783 1.59662303,559.639075 L0,555.586647 C38.8918757,540.326179 75.5880312,518.618403 111.074359,497.624736 C178.074362,457.98874 247.357331,417 334.947664,417 C422.537996,417 491.820965,457.98874 558.823876,497.627639 C625.317845,536.96754 694.077332,577.645672 780.475286,577.645672 C866.870332,577.645672 935.629819,536.96754 1002.12379,497.627639 C1069.12379,457.98874 1138.40676,417 1226,417 L1226,421.354328 C1139.60205,421.354328 1070.84256,462.03246 1004.34859,501.372361 C937.348588,541.01126 868.065618,582 780.475286,582" id="Fill-23"></path>
                <path d="M780.475286,553 C692.882046,553 623.599076,512.01126 556.599073,472.372361 C490.102196,433.03246 421.34271,392.354328 334.947664,392.354328 C248.552618,392.354328 179.793131,433.03246 113.296254,472.372361 C77.6616053,493.453114 40.8142214,515.253783 1.59662303,530.639075 L0,526.586647 C38.8918757,511.329082 75.5880312,489.618403 111.071451,468.624736 C178.074362,428.98874 247.357331,388 334.947664,388 C422.537996,388 491.820965,428.98874 558.823876,468.627639 C625.317845,507.96754 694.077332,548.645672 780.475286,548.645672 C866.870332,548.645672 935.629819,507.96754 1002.12379,468.627639 C1069.12379,428.98874 1138.40676,388 1226,388 L1226,392.354328 C1139.60205,392.354328 1070.84256,433.03246 1004.34859,472.372361 C937.348588,512.01126 868.065618,553 780.475286,553" id="Fill-24"></path>
                <path d="M780.475286,523 C692.882046,523 623.599076,482.01126 556.599073,442.372361 C490.102196,403.03246 421.34271,362.354328 334.947664,362.354328 C248.552618,362.354328 179.793131,403.03246 113.296254,442.372361 C77.6616053,463.456017 40.8142214,485.253783 1.59662303,500.641977 L0,496.58955 C38.8918757,481.329082 75.5880312,459.621305 111.074359,438.627639 C178.074362,398.98874 247.357331,358 334.947664,358 C422.537996,358 491.820965,398.98874 558.823876,438.627639 C625.317845,477.96754 694.077332,518.645672 780.475286,518.645672 C866.870332,518.645672 935.629819,477.96754 1002.12379,438.627639 C1069.12379,398.98874 1138.40676,358 1226,358 L1226,362.354328 C1139.60205,362.354328 1070.84256,403.03246 1004.34859,442.372361 C937.348588,482.01126 868.065618,523 780.475286,523" id="Fill-25"></path>
                <path d="M780.475286,494 C692.882046,494 623.599076,453.013441 556.599073,413.373845 C490.102196,374.033252 421.34271,333.354405 334.947664,333.354405 C248.552618,333.354405 179.793131,374.033252 113.296254,413.370942 C77.6616053,434.452066 40.8142214,456.253118 1.59662303,471.641584 L0,467.586182 C38.8918757,452.328348 75.5880312,430.62019 111.074359,409.626155 C178.074362,369.989461 247.357331,329 334.947664,329 C422.537996,329 491.820965,369.989461 558.823876,409.626155 C625.317845,448.966748 694.077332,489.645595 780.475286,489.645595 C866.870332,489.645595 935.629819,448.966748 1002.12379,409.626155 C1069.12379,369.989461 1138.40676,329 1226,329 L1226,333.354405 C1139.60205,333.354405 1070.84256,374.033252 1004.34859,413.373845 C937.348588,453.013441 868.065618,494 780.475286,494" id="Fill-26"></path>
                <path d="M780.475286,465 C692.882046,465 623.599076,424.01126 556.599073,384.372361 C490.102196,345.03246 421.34271,304.354328 334.947664,304.354328 C248.552618,304.354328 179.793131,345.03246 113.299162,384.369458 C77.6645136,405.453114 40.8142214,427.25088 1.59662303,442.639075 L0,438.586647 C38.8918757,423.326179 75.5880312,401.618403 111.074359,380.624736 C178.074362,340.98874 247.357331,300 334.947664,300 C422.537996,300 491.820965,340.98874 558.823876,380.627639 C625.317845,419.96754 694.077332,460.645672 780.475286,460.645672 C866.870332,460.645672 935.629819,419.96754 1002.12379,380.627639 C1069.12379,340.98874 1138.40676,300 1226,300 L1226,304.354328 C1139.60205,304.354328 1070.84256,345.03246 1004.34859,384.372361 C937.348588,424.01126 868.065618,465 780.475286,465" id="Fill-27"></path>
                <path d="M780.475286,435 C692.882046,435 623.599076,394.01126 556.599073,354.372361 C490.102196,315.03246 421.34271,274.354328 334.947664,274.354328 C248.552618,274.354328 179.793131,315.03246 113.296254,354.372361 C77.6616053,375.453114 40.8142214,397.25088 1.59662303,412.639075 L0,408.586647 C38.8918757,393.329082 75.5880312,371.618403 111.071451,350.624736 C178.074362,310.98874 247.357331,270 334.947664,270 C422.537996,270 491.820965,310.98874 558.823876,350.627639 C625.317845,389.96754 694.077332,430.645672 780.475286,430.645672 C866.870332,430.645672 935.629819,389.96754 1002.12379,350.627639 C1069.12379,310.98874 1138.40676,270 1226,270 L1226,274.354328 C1139.60205,274.354328 1070.84256,315.03246 1004.34859,354.372361 C937.348588,394.01126 868.065618,435 780.475286,435" id="Fill-28"></path>
                <path d="M780.475286,406 C692.882046,406 623.599076,365.014163 556.599073,325.372361 C490.102196,286.035362 421.34271,245.354328 334.947664,245.354328 C248.552618,245.354328 179.796039,286.03246 113.30207,325.369458 C77.6645136,346.453114 40.8171297,368.25088 1.59662303,383.639075 L0,379.586647 C38.8947839,364.326179 75.5909394,342.618403 111.077268,321.624736 C178.07727,281.98874 247.357331,241 334.947664,241 C422.537996,241 491.820965,281.98874 558.823876,321.627639 C625.317845,360.96754 694.077332,401.645672 780.475286,401.645672 C866.870332,401.645672 935.629819,360.96754 1002.12379,321.627639 C1069.12379,281.98874 1138.40676,241 1226,241 L1226,245.354328 C1139.60205,245.354328 1070.84256,286.035362 1004.34859,325.372361 C937.348588,365.014163 868.065618,406 780.475286,406" id="Fill-29"></path>
                <path d="M780.475286,377 C692.882046,377 623.599076,336.013441 556.599073,296.373845 C490.102196,257.033252 421.34271,216.354405 334.947664,216.354405 C248.549709,216.354405 179.793131,257.033252 113.296254,296.373845 C77.6616053,317.454969 40.8142214,339.253118 1.59662303,354.641584 L0,350.589085 C38.8918757,335.328348 75.5880312,313.62019 111.071451,292.626155 C178.071453,252.989461 247.354423,212 334.947664,212 C422.537996,212 491.820965,252.989461 558.823876,292.626155 C625.317845,331.966748 694.077332,372.645595 780.475286,372.645595 C866.870332,372.645595 935.629819,331.966748 1002.12379,292.626155 C1069.12379,252.989461 1138.40676,212 1226,212 L1226,216.354405 C1139.60205,216.354405 1070.84256,257.033252 1004.34859,296.373845 C937.348588,336.013441 868.065618,377 780.475286,377" id="Fill-30"></path>
                <path d="M780.475286,348 C692.882046,348 623.599076,307.013441 556.599073,267.373845 C490.102196,228.033252 421.34271,187.354405 334.947664,187.354405 C248.552618,187.354405 179.793131,228.033252 113.299162,267.370942 C77.6645136,288.454969 40.8142214,310.253118 1.59662303,325.641584 L0,321.589085 C38.8918757,306.328348 75.5880312,284.62019 111.074359,263.626155 C178.074362,223.989461 247.357331,183 334.947664,183 C422.537996,183 491.820965,223.989461 558.823876,263.626155 C625.317845,302.966748 694.077332,343.645595 780.475286,343.645595 C866.870332,343.645595 935.629819,302.966748 1002.12379,263.626155 C1069.12379,223.989461 1138.40676,183 1226,183 L1226,187.354405 C1139.60205,187.354405 1070.84256,228.033252 1004.34859,267.373845 C937.348588,307.013441 868.065618,348 780.475286,348" id="Fill-31"></path>
                <path d="M780.475286,318 C692.882046,318 623.599076,277.01126 556.599073,237.372361 C490.102196,198.03246 421.34271,157.354328 334.947664,157.354328 C248.552618,157.354328 179.793131,198.03246 113.299162,237.369458 C77.6645136,258.453114 40.8142214,280.25088 1.59662303,295.639075 L0,291.586647 C38.8947839,276.329082 75.5880312,254.618403 111.074359,233.624736 C178.074362,193.98874 247.357331,153 334.947664,153 C422.537996,153 491.820965,193.98874 558.823876,233.627639 C625.317845,272.96754 694.077332,313.645672 780.475286,313.645672 C866.870332,313.645672 935.629819,272.96754 1002.12379,233.627639 C1069.12379,193.98874 1138.40676,153 1226,153 L1226,157.354328 C1139.60205,157.354328 1070.84256,198.03246 1004.34859,237.372361 C937.348588,277.01126 868.065618,318 780.475286,318" id="Fill-32"></path>
                <path d="M780.475286,289 C692.882046,289 623.599076,248.01126 556.599073,208.372361 C490.102196,169.035362 421.34271,128.354328 334.947664,128.354328 C248.552618,128.354328 179.793131,169.03246 113.299162,208.372361 C77.6645136,229.453114 40.8142214,251.253783 1.59662303,266.641977 L0,262.58955 C38.8918757,247.329082 75.5880312,225.618403 111.074359,204.624736 C178.074362,164.98874 247.357331,124 334.947664,124 C422.537996,124 491.820965,164.98874 558.823876,204.627639 C625.317845,243.96754 694.077332,284.645672 780.475286,284.645672 C866.870332,284.645672 935.629819,243.96754 1002.12379,204.627639 C1069.12379,164.98874 1138.40676,124 1226,124 L1226,128.354328 C1139.60205,128.354328 1070.84256,169.035362 1004.34859,208.372361 C937.348588,248.01126 868.065618,289 780.475286,289" id="Fill-33"></path>
                <path d="M780.475286,260 C692.882046,260 623.599076,219.014163 556.599073,179.372361 C490.102196,140.035362 421.34271,99.3543279 334.947664,99.3543279 C248.552618,99.3543279 179.793131,140.035362 113.296254,179.372361 C77.6616053,200.456017 40.8142214,222.253783 1.59662303,237.641977 L0,233.58955 C38.8918757,218.329082 75.5880312,196.621305 111.071451,175.627639 C178.074362,135.98874 247.357331,95 334.947664,95 C422.537996,95 491.820965,135.98874 558.823876,175.627639 C625.317845,214.96754 694.077332,255.645672 780.475286,255.645672 C866.870332,255.645672 935.629819,214.96754 1002.12379,175.627639 C1069.12379,135.98874 1138.40676,95 1226,95 L1226,99.3543279 C1139.60205,99.3543279 1070.84256,140.035362 1004.34859,179.372361 C937.348588,219.014163 868.065618,260 780.475286,260" id="Fill-34"></path>
                <path d="M780.475286,231 C692.882046,231 623.599076,190.013441 556.599073,150.373845 C490.102196,111.033252 421.34271,70.3544045 334.947664,70.3544045 C248.552618,70.3544045 179.793131,111.033252 113.299162,150.370942 C77.6645136,171.452066 40.8142214,193.253118 1.59662303,208.641584 L0,204.589085 C38.8918757,189.328348 75.5880312,167.62019 111.074359,146.626155 C178.074362,106.986559 247.357331,66 334.947664,66 C422.537996,66 491.820965,106.986559 558.823876,146.626155 C625.317845,185.966748 694.077332,226.645595 780.475286,226.645595 C866.870332,226.645595 935.629819,185.966748 1002.12379,146.626155 C1069.12379,106.986559 1138.40676,66 1226,66 L1226,70.3544045 C1139.60205,70.3544045 1070.84256,111.033252 1004.34859,150.373845 C937.348588,190.013441 868.065618,231 780.475286,231" id="Fill-35"></path>
                <path d="M780.475286,201 C692.882046,201 623.599076,160.01126 556.599073,120.372361 C490.102196,81.0324595 421.34271,40.3543279 334.947664,40.3543279 C248.552618,40.3543279 179.793131,81.0324595 113.299162,120.369458 C77.6645136,141.453114 40.8142214,163.25088 1.59662303,178.639075 L0,174.586647 C38.8947839,159.329082 75.5880312,137.618403 111.074359,116.624736 C178.074362,76.9858374 247.357331,36 334.947664,36 C422.537996,36 491.820965,76.9887403 558.823876,116.627639 C625.317845,155.96754 694.077332,196.645672 780.475286,196.645672 C866.870332,196.645672 935.629819,155.96754 1002.12379,116.627639 C1069.12379,76.9887403 1138.40676,36 1226,36 L1226,40.3543279 C1139.60205,40.3543279 1070.84256,81.0324595 1004.34859,120.372361 C937.348588,160.01126 868.065618,201 780.475286,201" id="Fill-36"></path>
                <path d="M780.475286,172 C692.882046,172 623.599076,131.014163 556.599073,91.372361 C490.102196,52.0324595 421.34271,11.3543279 334.947664,11.3543279 C248.552618,11.3543279 179.793131,52.0324595 113.299162,91.372361 C77.6645136,112.453114 40.8142214,134.253783 1.59662303,149.641977 L0,145.58955 C38.8918757,130.329082 75.5880312,108.618403 111.074359,87.6247361 C178.074362,47.9887403 247.357331,7 334.947664,7 C422.537996,7 491.820965,47.9887403 558.823876,87.627639 C625.317845,126.96754 694.077332,167.645672 780.475286,167.645672 C866.870332,167.645672 935.629819,126.96754 1002.12379,87.627639 C1069.12379,47.9887403 1138.40676,7 1226,7 L1226,11.3543279 C1139.60205,11.3543279 1070.84256,52.0324595 1004.34859,91.372361 C937.348588,131.014163 868.065618,172 780.475286,172" id="Fill-37"></path>
                <path d="M780.501453,143 C692.961138,143 623.719423,101.995167 556.759221,62.3378011 C521.063001,41.1994029 484.157724,19.3437107 445,4.05692295 L446.586886,0 C486.073032,15.4145648 523.138159,37.3631859 558.979699,58.5916088 C625.437097,97.9498599 694.155663,138.643962 780.501453,138.643962 C866.841431,138.643962 935.55709,97.9498599 1002.00868,58.5945128 C1037.85603,37.3660899 1074.92116,15.4145648 1114.41311,0 L1116,4.05692295 C1076.83937,19.3437107 1039.92828,41.202307 1004.23206,62.3407051 C937.274764,101.995167 868.035955,143 780.501453,143" id="Fill-38"></path>
                <path d="M1.59570345,121 L0,116.930741 C38.8694759,101.620775 75.5444963,79.8384449 111.010386,58.7697641 C146.857036,37.4797063 183.927349,15.4614348 223.415923,0 L225,4.06925855 C185.842774,19.3996148 148.929416,41.324675 113.233907,62.53026 C77.6168762,83.6834136 40.7907145,105.558955 1.59570345,121" id="Fill-39"></path>
                <path d="M780.501454,114 C692.904817,114 623.621461,72.8748371 556.618176,33.101096 C540.116738,23.3062007 523.054007,13.1763624 506,3.83582433 L508.093944,0 C525.21484,9.38131371 542.309562,19.5286273 558.842991,29.3439105 C625.340239,68.8147467 694.103018,109.63118 780.501454,109.63118 C866.896982,109.63118 935.656852,68.8147467 1002.1541,29.3439105 C1018.68753,19.5315398 1035.78516,9.38131371 1052.90896,0 L1055,3.83582433 C1037.94309,13.1763624 1020.88035,23.3062007 1004.37892,33.101096 C937.375631,72.8748371 868.092275,114 780.501454,114" id="Fill-40"></path>
                <path d="M1.5974026,91 L0,86.9562631 C38.9079554,71.7423182 75.6191186,50.0994974 111.116954,29.1687448 C127.661273,19.4139894 144.770066,9.32635664 161.905046,0 L164,3.81216999 C146.931942,13.0980024 129.855156,23.1653731 113.342843,32.902761 C77.6966149,53.9203512 40.8341495,75.6557987 1.5974026,91" id="Fill-41"></path>
                <path d="M780,85 C692.361237,85 623.039958,43.7063478 556,3.7725787 L558.223123,0 C624.756768,39.6296233 693.557184,80.6132806 780,80.6132806 C866.436997,80.6132806 935.231593,39.6354722 1001.75942,0.00584895923 L1004,3.7725787 C936.951312,43.7092723 867.632944,85 780,85" id="Fill-42"></path>
                <path d="M1.59248896,62 L0,57.946232 C38.7708697,42.6894291 75.3517045,20.9860896 110.728745,0 L113,3.71401808 C77.4228104,24.8220692 40.688238,46.6154278 1.59248896,62" id="Fill-43"></path>
                <path d="M780,55 C710.422776,55 653.502033,29.1210496 607,3.8089604 L609.089554,0 C655.109159,25.0517958 711.402164,50.6617763 780,50.6617763 C848.59493,50.6617763 904.887935,25.0517958 950.910446,0 L953,3.8089604 C906.497967,29.1210496 849.574318,55 780,55" id="Fill-44"></path>
            </g>
        </g>
    </g>
</svg>